HIERARCHY
ROOT Hips
{
	OFFSET 0.00000 0.00000 0.00000
	CHANNELS 6 Xposition Yposition Zposition Zrotation Yrotation Xrotation 
	JOINT LHipJoint
	{
		OFFSET 0 0 0
		CHANNELS 3 Zrotation Yrotation Xrotation
		JOINT LeftUpLeg
		{
			OFFSET 1.75344 -1.53157 0.77399
			CHANNELS 3 Zrotation Yrotation Xrotation
			JOINT LeftLeg
			{
				OFFSET 2.25415 -6.19323 0.00000
				CHANNELS 3 Zrotation Yrotation Xrotation
				JOINT LeftFoot
				{
					OFFSET 2.30342 -6.32861 0.00000
					CHANNELS 3 Zrotation Yrotation Xrotation
					JOINT LeftToeBase
					{
						OFFSET 0.10958 -0.30108 1.49206
						CHANNELS 3 Zrotation Yrotation Xrotation
						End Site
						{
							OFFSET 0.00000 -0.00000 0.77783
						}
					}
				}
			}
		}
	}
	JOINT RHipJoint
	{
		OFFSET 0 0 0
		CHANNELS 3 Zrotation Yrotation Xrotation
		JOINT RightUpLeg
		{
			OFFSET -1.81912 -1.53156 0.77399
			CHANNELS 3 Zrotation Yrotation Xrotation
			JOINT RightLeg
			{
				OFFSET -2.22882 -6.12365 0.00000
				CHANNELS 3 Zrotation Yrotation Xrotation
				JOINT RightFoot
				{
					OFFSET -2.21943 -6.09785 0.00000
					CHANNELS 3 Zrotation Yrotation Xrotation
					JOINT RightToeBase
					{
						OFFSET -0.18931 -0.52012 1.59379
						CHANNELS 3 Zrotation Yrotation Xrotation
						End Site
						{
							OFFSET -0.00000 -0.00000 0.84686
						}
					}
				}
			}
		}
	}
	JOINT LowerBack
	{
		OFFSET 0 0 0
		CHANNELS 3 Zrotation Yrotation Xrotation
		JOINT Spine
		{
			OFFSET -0.00200 1.66634 -0.14248
			CHANNELS 3 Zrotation Yrotation Xrotation
			JOINT Spine1
			{
				OFFSET -0.00875 1.64542 0.09514
				CHANNELS 3 Zrotation Yrotation Xrotation
				JOINT Neck
				{
					OFFSET 0 0 0
					CHANNELS 3 Zrotation Yrotation Xrotation
					JOINT Neck1
					{
						OFFSET 0.02257 1.59605 0.00839
						CHANNELS 3 Zrotation Yrotation Xrotation
						JOINT Head
						{
							OFFSET -0.10214 1.57530 -0.23335
							CHANNELS 3 Zrotation Yrotation Xrotation
							End Site
							{
								OFFSET -0.03588 1.60717 -0.08062
							}
						}
					}
				}
				JOINT LeftShoulder
				{
					OFFSET 0 0 0
					CHANNELS 3 Zrotation Yrotation Xrotation
					JOINT LeftArm
					{
						OFFSET 2.54983 1.10186 0.40078
						CHANNELS 3 Zrotation Yrotation Xrotation
						JOINT LeftForeArm
						{
							OFFSET 4.28840 -0.00000 0.00000
							CHANNELS 3 Zrotation Yrotation Xrotation
							JOINT LeftHand
							{
								OFFSET 3.06552 -0.00000 -0.00000
								CHANNELS 3 Zrotation Yrotation Xrotation
								JOINT LeftFingerBase
								{
									OFFSET 0 0 0
									CHANNELS 3 Zrotation Yrotation Xrotation
									JOINT LeftHandIndex1
									{
										OFFSET 0.75304 -0.00000 0.00000
										CHANNELS 3 Zrotation Yrotation Xrotation
										End Site
										{
											OFFSET 0.60712 -0.00000 0.00000
										}
									}
								}
								JOINT LThumb
								{
									OFFSET 0 0 0
									CHANNELS 3 Zrotation Yrotation Xrotation
									End Site
									{
										OFFSET 0.61639 -0.00000 0.61639
									}
								}
							}
						}
					}
				}
				JOINT RightShoulder
				{
					OFFSET 0 0 0
					CHANNELS 3 Zrotation Yrotation Xrotation
					JOINT RightArm
					{
						OFFSET -2.60909 1.35448 0.21802
						CHANNELS 3 Zrotation Yrotation Xrotation
						JOINT RightForeArm
						{
							OFFSET -4.52172 -0.00000 -0.00000
							CHANNELS 3 Zrotation Yrotation Xrotation
							JOINT RightHand
							{
								OFFSET -2.89140 -0.00000 0.00000
								CHANNELS 3 Zrotation Yrotation Xrotation
								JOINT RightFingerBase
								{
									OFFSET 0 0 0
									CHANNELS 3 Zrotation Yrotation Xrotation
									JOINT RightHandIndex1
									{
										OFFSET -0.68054 -0.00000 0.00000
										CHANNELS 3 Zrotation Yrotation Xrotation
										End Site
										{
											OFFSET -0.54867 -0.00000 0.00000
										}
									}
								}
								JOINT RThumb
								{
									OFFSET 0 0 0
									CHANNELS 3 Zrotation Yrotation Xrotation
									End Site
									{
										OFFSET -0.55705 -0.00000 0.55705
									}
								}
							}
						}
					}
				}
			}
		}
	}
}
MOTION
Frames: 8
Frame Time: 0.0571429
0.00 0.00 0.00 0 0 0 0 0 0 -21 0 0 0 0 0 0 0 0 0 0 0 0 0 0 21 0 0 0 0 0 0 0 0 0 0 0 0 0 0 0 0 0 0 0 0 0 0 -16 0 0 21 0 0 11 0 0 0 -8 0 0 0 0 0 0 0 0 0 0 0 0 0 0 0 0 0 0 0 0 8 0 0 0 0 0 0 0 0 0 0 0 0 0 0 0 0 0
0.00 0.00 0.00 -177.7210 1.4482 -174.0710 0.0000 0.0000 0.0000 -28.5594 -24.3265 1.2305 1.8837 8.6195 24.6121 2.9196 10.6323 -37.3119 1.0289 -6.4524 -18.1027 0.0000 0.0000 0.0000 21.8633 16.2009 -13.2200 -5.1269 -13.5253 41.3683 -0.5469 -14.3213 -25.4919 -0.0183 -0.8726 2.3983 1.7681 1.6917 7.8876 0.7972 2.5482 -2.9811 -0.5192 1.1975 -7.5258 -7.0171 -4.3218 -3.5760 7.0548 -6.5770 11.8482 2.9613 -3.3441 4.5857 0.0000 0.0000 0.0000 -84.9255 15.5563 27.7478 16.3152 -25.9461 -3.7828 -0.0000 -0.0000 20.7860 3.9074 -31.7993 -2.0613 -7.1250 0.0000 -0.0000 -15.6383 -0.8590 16.4942 0.0000 0.0000 0.0000 84.0346 -12.4877 31.1121 -18.9844 29.3993 -5.0232 0.0000 0.0000 27.4966 -28.1113 -52.5728 22.9879 7.1250 -0.0000 -0.0000 60.4316 -82.2221 -53.3964
0.00 0.00 0.00 -180.4820 -1.8274 -173.6160 0.0000 0.0000 0.0000 -34.8415 -21.8250 18.3153 0.1903 2.8096 7.7491 0.9185 17.5765 -31.6561 1.8931 -8.6398 -24.6749 0.0000 0.0000 0.0000 21.1789 12.1331 -35.4447 -4.4549 -12.7423 38.4114 -0.9109 -13.3889 -27.3591 -0.2674 -3.3265 9.1891 -1.8444 0.2455 10.3117 -0.2822 0.0517 -2.4342 0.7316 0.1080 -8.3876 -6.9657 -3.9336 -5.9264 8.0729 -5.5016 7.9677 3.3075 -2.6245 3.7561 -0.0000 0.0000 0.0000 -78.6916 0.1010 24.7233 19.0884 -29.5283 -5.0743 -0.0000 -0.0000 18.9970 18.1735 -37.1256 -11.2070 -7.1250 0.0000 -0.0000 -8.3612 -8.2021 9.5639 -0.0000 0.0000 0.0000 82.4605 -12.9346 28.7112 -17.7953 27.8943 -4.4531 0.0000 0.0000 23.9336 -11.9326 -51.3035 9.3657 7.1250 -0.0000 -0.0000 60.6232 -75.1116 -46.4982
0.00 0.00 0.00 -178.4470 -3.4602 -170.7810 0.0000 0.0000 0.0000 -24.7221 -6.8979 5.7896 2.3718 9.6009 27.6938 0.3557 -0.7846 -11.0168 2.0873 -9.0457 -25.9383 0.0000 0.0000 0.0000 26.4782 11.9740 -25.9414 -3.1209 -10.8883 31.9040 -0.2204 -14.9468 -23.3951 -0.0722 -1.7334 4.7695 -1.7152 -0.1741 10.0161 0.3421 -0.4494 -3.2268 1.4114 -0.1141 -9.0582 -6.8616 -3.8938 -8.3930 8.4413 -4.9898 2.5640 3.4199 -2.3319 2.5125 0.0000 0.0000 0.0000 -72.8094 11.3971 31.7104 39.3494 -47.6797 -17.9567 -0.0000 0.0000 -1.1488 23.6005 -36.3704 -14.5250 -7.1250 0.0000 -0.0000 -5.3514 -8.6581 6.1208 0.0000 0.0000 0.0000 81.1348 -14.0904 34.9940 -17.1938 27.1126 -4.1753 0.0000 0.0000 23.7532 -21.5766 -50.0658 16.8688 7.1250 -0.0000 -0.0000 49.3857 -78.4034 -39.9186
0.00 0.00 0.00 -177.6850 -2.2340 -171.6860 0.0000 0.0000 0.0000 -21.0007 -2.3071 -3.5404 5.6947 14.1258 43.7438 -0.0197 -3.1109 3.1191 1.2702 -7.1434 -20.1408 0.0000 0.0000 0.0000 28.8825 11.4992 -18.4655 -2.2480 -9.3646 26.9428 -0.1495 -16.0352 -24.1463 -0.0648 -1.6424 4.5184 -1.0149 0.4503 10.2714 0.2155 0.4744 -3.0331 0.7171 0.2903 -9.0212 -6.8323 -4.1353 -9.1224 8.5253 -5.3137 3.0981 3.4060 -2.4696 2.8171 -0.0000 0.0000 0.0000 -73.5352 16.4368 31.1661 36.0324 -45.5354 -15.5456 -0.0000 0.0000 -0.1082 20.2803 -33.9766 -11.6680 -7.1250 0.0000 -0.0000 -6.7476 -5.4951 7.4123 -0.0000 0.0000 0.0000 81.5124 -13.9947 37.4994 -16.7194 26.4863 -3.9614 0.0000 0.0000 22.9671 -14.5877 -50.5102 11.3565 7.1250 -0.0000 -0.0000 56.1048 -75.7984 -43.2717
0.00 0.00 0.00 -176.1150 -2.9553 -172.4520 0.0000 0.0000 0.0000 -16.8569 -5.2629 -14.8293 11.0475 17.9582 62.9356 -0.0289 -4.6204 5.4085 1.4429 -7.5939 -21.4871 0.0000 0.0000 0.0000 32.3180 11.1935 -9.2640 -1.2194 -7.0044 19.7283 0.0918 -18.6256 -25.5926 -0.1857 -2.7755 7.6543 1.1240 0.8839 10.3316 0.2397 1.3515 -2.6648 -0.6162 0.6017 -8.6238 -7.5493 -4.8192 -9.1137 9.4029 -6.1928 2.5608 3.7381 -2.9003 2.7762 -0.0000 0.0000 0.0000 -74.5094 20.6883 31.5357 30.8413 -41.6037 -11.9643 -0.0000 -0.0000 1.6094 12.8506 -30.5035 -6.6051 -7.1250 0.0000 -0.0000 -10.5284 -0.7028 10.8405 -0.0000 0.0000 0.0000 81.3586 -12.8147 40.2633 -17.2787 27.2237 -4.2140 0.0000 0.0000 22.5011 -3.3544 -49.8894 2.5666 7.1250 -0.0000 -0.0000 61.9976 -71.3615 -43.5934
0.00 0.00 0.00 -175.3820 -2.1364 -172.8790 0.0000 0.0000 0.0000 -14.4382 -11.1524 -29.0524 13.5207 18.9622 70.7351 0.4492 -3.3332 -11.9578 1.6878 -8.1831 -23.2716 0.0000 0.0000 0.0000 35.6289 14.5922 0.0628 -0.9207 -6.1134 17.1138 0.4974 -23.9156 -30.4438 -0.4226 -4.1722 11.5618 2.5992 2.2486 10.8824 0.0583 3.3783 -2.6147 -2.0132 1.4977 -8.7577 -8.6907 -5.9080 -7.6182 9.7798 -7.5553 0.9598 4.0016 -3.6299 2.2313 -0.0000 -0.0000 0.0000 -77.2187 26.7793 27.8816 24.4992 -35.6877 -7.9959 -0.0000 -0.0000 8.1957 8.2447 -31.8013 -4.3665 -7.1250 0.0000 -0.0000 -13.2243 -1.3453 13.9034 -0.0000 -0.0000 0.0000 80.6417 -9.2170 40.4623 -17.4861 27.4942 -4.3094 0.0000 0.0000 22.9050 1.7386 -50.6938 -1.3454 7.1250 -0.0000 -0.0000 67.5557 -69.9344 -46.7278
0.00 0.00 0.00 -175.6440 -0.2910 -172.7800 0.0000 0.0000 0.0000 -13.6614 -16.8549 -35.9557 8.3069 16.3404 53.6606 1.4166 2.8961 -23.6892 1.1873 -6.9149 -19.4635 0.0000 0.0000 0.0000 37.1410 13.2690 14.8510 -0.0156 -0.8058 2.2146 1.6875 -27.1233 -27.1610 -0.7359 -5.4806 15.2846 3.4527 3.8352 10.8380 -0.5643 5.5801 -2.9584 -3.5418 2.4951 -8.8524 -10.2314 -6.9205 -6.2035 11.0434 -8.9278 0.6935 4.5884 -4.3280 2.1826 0.0000 0.0000 0.0000 -80.6950 30.2241 15.4425 17.6504 -27.7073 -4.3855 -0.0000 -0.0000 16.5083 7.0072 -32.4987 -3.7782 -7.1250 0.0000 -0.0000 -13.9504 -1.8713 14.8398 0.0000 0.0000 0.0000 80.0155 -4.9991 37.5786 -18.0682 28.2445 -4.5815 0.0000 0.0000 24.9842 -3.3163 -52.1655 2.6203 7.1250 -0.0000 -0.0000 68.4283 -72.2471 -50.2563
